<svg xmlns="http://www.w3.org/2000/svg" width="920" height="560" viewBox="0 0 920 560">
  <rect width="100%" height="100%" fill="#ffffff"/>
  <text x="460.0" y="24" text-anchor="middle" font-size="20" font-family="Arial, sans-serif">LSC 6.0 toy propagation + anisotropic detector response</text>
  <line x1="70" y1="495" x2="890" y2="495" stroke="#333" stroke-width="1"/><line x1="70" y1="35" x2="70" y2="495" stroke="#333" stroke-width="1"/><line x1="70" y1="351.89" x2="890" y2="351.89" stroke="#111" stroke-width="1.5" stroke-dasharray="7 5"/>
  <polyline points="70.00,351.89 74.56,351.84 79.11,351.69 83.67,351.45 88.22,351.11 92.78,350.67 97.33,350.13 101.89,349.50 106.44,348.77 111.00,347.95 115.56,347.03 120.11,346.03 124.67,344.93 129.22,343.74 133.78,342.47 138.33,341.10 142.89,339.66 147.44,338.13 152.00,336.51 156.56,334.82 161.11,333.06 165.67,331.21 170.22,329.30 174.78,327.31 179.33,325.25 183.89,323.13 188.44,320.95 193.00,318.71 197.56,316.40 202.11,314.05 206.67,311.64 211.22,309.18 215.78,306.68 220.33,304.13 224.89,301.54 229.44,298.92 234.00,296.26 238.56,293.58 243.11,290.86 247.67,288.13 252.22,285.37 256.78,282.59 261.33,279.80 265.89,277.00 270.44,274.20 275.00,271.39 279.56,268.58 284.11,265.77 288.67,262.97 293.22,260.19 297.78,257.41 302.33,254.65 306.89,251.91 311.44,249.20 316.00,246.51 320.56,243.86 325.11,241.23 329.67,238.65 334.22,236.10 338.78,233.60 343.33,231.14 347.89,228.73 352.44,226.37 357.00,224.07 361.56,221.83 366.11,219.64 370.67,217.52 375.22,215.47 379.78,213.48 384.33,211.57 388.89,209.72 393.44,207.95 398.00,206.26 402.56,204.65 407.11,203.12 411.67,201.67 416.22,200.31 420.78,199.04 425.33,197.85 429.89,196.75 434.44,195.74 439.00,194.83 443.56,194.01 448.11,193.28 452.67,192.65 457.22,192.11 461.78,191.67 466.33,191.33 470.89,191.08 475.44,190.94 480.00,190.89 484.56,190.94 489.11,191.08 493.67,191.33 498.22,191.67 502.78,192.11 507.33,192.65 511.89,193.28 516.44,194.01 521.00,194.83 525.56,195.74 530.11,196.75 534.67,197.85 539.22,199.04 543.78,200.31 548.33,201.67 552.89,203.12 557.44,204.65 562.00,206.26 566.56,207.95 571.11,209.72 575.67,211.57 580.22,213.48 584.78,215.47 589.33,217.52 593.89,219.64 598.44,221.83 603.00,224.07 607.56,226.37 612.11,228.73 616.67,231.14 621.22,233.60 625.78,236.10 630.33,238.65 634.89,241.23 639.44,243.86 644.00,246.51 648.56,249.20 653.11,251.91 657.67,254.65 662.22,257.41 666.78,260.19 671.33,262.97 675.89,265.77 680.44,268.58 685.00,271.39 689.56,274.20 694.11,277.00 698.67,279.80 703.22,282.59 707.78,285.37 712.33,288.13 716.89,290.86 721.44,293.58 726.00,296.26 730.56,298.92 735.11,301.54 739.67,304.13 744.22,306.68 748.78,309.18 753.33,311.64 757.89,314.05 762.44,316.40 767.00,318.71 771.56,320.95 776.11,323.13 780.67,325.25 785.22,327.31 789.78,329.30 794.33,331.21 798.89,333.06 803.44,334.82 808.00,336.51 812.56,338.13 817.11,339.66 821.67,341.10 826.22,342.47 830.78,343.74 835.33,344.93 839.89,346.03 844.44,347.03 849.00,347.95 853.56,348.77 858.11,349.50 862.67,350.13 867.22,350.67 871.78,351.11 876.33,351.45 880.89,351.69 885.44,351.84 890.00,351.89" fill="none" stroke="#00aaff" stroke-width="3"/><polyline points="70.00,369.78 74.56,369.71 79.11,369.52 83.67,369.19 88.22,368.73 92.78,368.15 97.33,367.43 101.89,366.59 106.44,365.62 111.00,364.52 115.56,363.30 120.11,361.96 124.67,360.50 129.22,358.92 133.78,357.21 138.33,355.40 142.89,353.47 147.44,351.43 152.00,349.28 156.56,347.02 161.11,344.67 165.67,342.21 170.22,339.65 174.78,337.00 179.33,334.26 183.89,331.44 188.44,328.53 193.00,325.53 197.56,322.46 202.11,319.32 206.67,316.11 211.22,312.83 215.78,309.50 220.33,306.10 224.89,302.65 229.44,299.15 234.00,295.61 238.56,292.03 243.11,288.41 247.67,284.76 252.22,281.08 256.78,277.38 261.33,273.66 265.89,269.93 270.44,266.19 275.00,262.44 279.56,258.70 284.11,254.96 288.67,251.23 293.22,247.51 297.78,243.81 302.33,240.13 306.89,236.48 311.44,232.86 316.00,229.28 320.56,225.73 325.11,222.24 329.67,218.79 334.22,215.39 338.78,212.05 343.33,208.78 347.89,205.57 352.44,202.42 357.00,199.36 361.56,196.36 366.11,193.45 370.67,190.62 375.22,187.88 379.78,185.24 384.33,182.68 388.89,180.22 393.44,177.86 398.00,175.61 402.56,173.46 407.11,171.42 411.67,169.49 416.22,167.67 420.78,165.97 425.33,164.39 429.89,162.93 434.44,161.58 439.00,160.36 443.56,159.27 448.11,158.30 452.67,157.46 457.22,156.74 461.78,156.16 466.33,155.70 470.89,155.37 475.44,155.18 480.00,155.11 484.56,155.18 489.11,155.37 493.67,155.70 498.22,156.16 502.78,156.74 507.33,157.46 511.89,158.30 516.44,159.27 521.00,160.36 525.56,161.58 530.11,162.93 534.67,164.39 539.22,165.97 543.78,167.67 548.33,169.49 552.89,171.42 557.44,173.46 562.00,175.61 566.56,177.86 571.11,180.22 575.67,182.68 580.22,185.24 584.78,187.88 589.33,190.62 593.89,193.45 598.44,196.36 603.00,199.36 607.56,202.42 612.11,205.57 616.67,208.78 621.22,212.05 625.78,215.39 630.33,218.79 634.89,222.24 639.44,225.73 644.00,229.28 648.56,232.86 653.11,236.48 657.67,240.13 662.22,243.81 666.78,247.51 671.33,251.23 675.89,254.96 680.44,258.70 685.00,262.44 689.56,266.19 694.11,269.93 698.67,273.66 703.22,277.38 707.78,281.08 712.33,284.76 716.89,288.41 721.44,292.03 726.00,295.61 730.56,299.15 735.11,302.65 739.67,306.10 744.22,309.50 748.78,312.83 753.33,316.11 757.89,319.32 762.44,322.46 767.00,325.53 771.56,328.53 776.11,331.44 780.67,334.26 785.22,337.00 789.78,339.65 794.33,342.21 798.89,344.67 803.44,347.02 808.00,349.28 812.56,351.43 817.11,353.47 821.67,355.40 826.22,357.21 830.78,358.92 835.33,360.50 839.89,361.96 844.44,363.30 849.00,364.52 853.56,365.62 858.11,366.59 862.67,367.43 867.22,368.15 871.78,368.73 876.33,369.19 880.89,369.52 885.44,369.71 890.00,369.78" fill="none" stroke="#ff2bd6" stroke-width="3"/><polyline points="70.00,405.56 74.56,405.46 79.11,405.16 83.67,404.67 88.22,403.99 92.78,403.11 97.33,402.04 101.89,400.77 106.44,399.32 111.00,397.68 115.56,395.85 120.11,393.83 124.67,391.64 129.22,389.26 133.78,386.71 138.33,383.99 142.89,381.09 147.44,378.03 152.00,374.81 156.56,371.43 161.11,367.89 165.67,364.20 170.22,360.37 174.78,356.40 179.33,352.29 183.89,348.04 188.44,343.68 193.00,339.19 197.56,334.59 202.11,329.87 206.67,325.06 211.22,320.14 215.78,315.13 220.33,310.04 224.89,304.87 229.44,299.62 234.00,294.31 238.56,288.93 243.11,283.50 247.67,278.03 252.22,272.51 256.78,266.96 261.33,261.38 265.89,255.79 270.44,250.17 275.00,244.56 279.56,238.94 284.11,233.32 288.67,227.73 293.22,222.15 297.78,216.60 302.33,211.08 306.89,205.61 311.44,200.18 316.00,194.80 320.56,189.49 325.11,184.24 329.67,179.07 334.22,173.98 338.78,168.97 343.33,164.06 347.89,159.24 352.44,154.53 357.00,149.92 361.56,145.43 366.11,141.07 370.67,136.83 375.22,132.72 379.78,128.74 384.33,124.91 388.89,121.22 393.44,117.69 398.00,114.30 402.56,111.08 407.11,108.02 411.67,105.13 416.22,102.40 420.78,99.85 425.33,97.47 429.89,95.28 434.44,93.27 439.00,91.44 443.56,89.79 448.11,88.34 452.67,87.07 457.22,86.00 461.78,85.12 466.33,84.44 470.89,83.95 475.44,83.65 480.00,83.56 484.56,83.65 489.11,83.95 493.67,84.44 498.22,85.12 502.78,86.00 507.33,87.07 511.89,88.34 516.44,89.79 521.00,91.44 525.56,93.27 530.11,95.28 534.67,97.47 539.22,99.85 543.78,102.40 548.33,105.13 552.89,108.02 557.44,111.08 562.00,114.30 566.56,117.69 571.11,121.22 575.67,124.91 580.22,128.74 584.78,132.72 589.33,136.83 593.89,141.07 598.44,145.43 603.00,149.92 607.56,154.53 612.11,159.24 616.67,164.06 621.22,168.97 625.78,173.98 630.33,179.07 634.89,184.24 639.44,189.49 644.00,194.80 648.56,200.18 653.11,205.61 657.67,211.08 662.22,216.60 666.78,222.15 671.33,227.73 675.89,233.32 680.44,238.94 685.00,244.56 689.56,250.17 694.11,255.79 698.67,261.38 703.22,266.96 707.78,272.51 712.33,278.03 716.89,283.50 721.44,288.93 726.00,294.31 730.56,299.62 735.11,304.87 739.67,310.04 744.22,315.13 748.78,320.14 753.33,325.06 757.89,329.87 762.44,334.59 767.00,339.19 771.56,343.68 776.11,348.04 780.67,352.29 785.22,356.40 789.78,360.37 794.33,364.20 798.89,367.89 803.44,371.43 808.00,374.81 812.56,378.03 817.11,381.09 821.67,383.99 826.22,386.71 830.78,389.26 835.33,391.64 839.89,393.83 844.44,395.85 849.00,397.68 853.56,399.32 858.11,400.77 862.67,402.04 867.22,403.11 871.78,403.99 876.33,404.67 880.89,405.16 885.44,405.46 890.00,405.56" fill="none" stroke="#00aa66" stroke-width="3"/>
  <rect x="625" y="60" width="18" height="4" fill="#00aaff"/><text x="650" y="70" font-size="14" fill="#111">detector 3%, propagation 3%</text><rect x="625" y="84" width="18" height="4" fill="#ff2bd6"/><text x="650" y="94" font-size="14" fill="#111">detector 4%, propagation 2.5%</text><rect x="625" y="108" width="18" height="4" fill="#00aa66"/><text x="650" y="118" font-size="14" fill="#111">detector 6%, propagation 1.5%</text><line x1="625" y1="142" x2="643" y2="142" stroke="#111" stroke-width="1.5" stroke-dasharray="7 5"/><text x="650" y="146" font-size="14" fill="#111">BEST-scale R ~ 0.79</text>
  <text x="460.0" y="542" text-anchor="middle" font-size="15" font-family="Arial, sans-serif">Arrival / detector angle theta [degrees]</text>
  <text x="20" y="280.0" transform="rotate(-90 20 280.0)" text-anchor="middle" font-size="15" font-family="Arial, sans-serif">Toy observed rate ratio R</text>
  <text x="60" y="137.22" text-anchor="end" font-size="12">1.00</text>
  <text x="60" y="351.89" text-anchor="end" font-size="12">0.79</text>
  <text x="60" y="443.89" text-anchor="end" font-size="12">0.70</text>
</svg>
